<?xml version="1.0" encoding="UTF-8"?>
<svg version="1.1" xmlns="http://www.w3.org/2000/svg" width="370" height="305">
<path d="M0 0 C122.1 0 244.2 0 370 0 C370 100.65 370 201.3 370 305 C247.9 305 125.8 305 0 305 C0 204.35 0 103.7 0 0 Z " fill="#EEEDFB" transform="translate(0,0)"/>
<path d="M0 0 C1.08985002 -0.00706559 2.17970005 -0.01413118 3.30257583 -0.02141088 C4.49944337 -0.0189958 5.69631092 -0.01658071 6.92944717 -0.01409245 C8.20128868 -0.01932912 9.47313019 -0.0245658 10.78351235 -0.02996117 C14.31634222 -0.0441541 17.84908416 -0.04580422 21.38193846 -0.04536426 C25.19120959 -0.04701134 29.00044437 -0.06007585 32.8096962 -0.07155704 C41.14030879 -0.094415 49.47089591 -0.10232855 57.80153561 -0.10738349 C63.00313509 -0.11063968 68.20472718 -0.1171617 73.40632248 -0.12438488 C87.80781567 -0.14395209 102.20930198 -0.16035551 116.61080933 -0.16326141 C117.53255106 -0.16344898 118.45429279 -0.16363655 119.40396608 -0.16382981 C121.27256918 -0.16419606 123.14117227 -0.16455976 125.00977537 -0.16492092 C125.93735459 -0.16510373 126.86493381 -0.16528654 127.82062149 -0.16547489 C128.74933281 -0.16565544 129.67804413 -0.16583599 130.63489822 -0.16602201 C145.68337723 -0.16956365 160.73171314 -0.19658485 175.78014252 -0.23397278 C191.229845 -0.27205051 206.67947647 -0.29141885 222.12922692 -0.29172093 C230.80383222 -0.29230563 239.47826684 -0.3008058 248.15282822 -0.32971859 C255.53947063 -0.35422539 262.92588011 -0.36152021 270.31255218 -0.34647106 C274.08073737 -0.3392991 277.84846254 -0.34017124 281.61659622 -0.36288166 C285.7039658 -0.38727985 289.79028763 -0.3728441 293.87768936 -0.35466862 C295.65960635 -0.37446857 295.65960635 -0.37446857 297.47752166 -0.39466852 C305.39077832 -0.31419946 310.46539627 1.1728075 316.17353225 6.73812968 C329.6539165 21.83466064 321.65753555 47.29792073 321.65753555 64.26006222 C208.79753555 64.26006222 95.93753555 64.26006222 -20.34246445 64.26006222 C-20.34246445 12.80392187 -20.34246445 12.80392187 -14.56121445 6.23662472 C-13.99402695 5.79060909 -13.42683945 5.34459347 -12.84246445 4.88506222 C-12.27527695 4.42357784 -11.70808945 3.96209347 -11.12371445 3.48662472 C-7.33953875 0.88085461 -4.62641247 0.00958225 0 0 Z " fill="#D1D1FC" transform="translate(34.342464447021484,14.739937782287598)"/>
<path d="M0 0 C3.11414036 1.70431827 5.38809699 3.77619399 7 7 C7.55863826 13.34513007 5.83354663 18.46519919 3.8125 24.4375 C3.07410125 26.67964881 2.335829 28.92183928 1.59765625 31.1640625 C0.97914795 33.02466309 0.97914795 33.02466309 0.34814453 34.92285156 C-1.12548481 39.36565278 -2.56568798 43.81906925 -4.00390625 48.2734375 C-9.80552023 66.22965036 -15.66976175 84.16423909 -21.67285156 102.05419922 C-22.16085125 103.50877431 -22.64880732 104.96336405 -23.13671875 106.41796875 C-23.37496368 107.12812134 -23.61320862 107.83827393 -23.8586731 108.56994629 C-25.30734074 112.89862317 -26.7310019 117.23465266 -28.1341095 121.57830811 C-29.03721721 124.37330396 -29.94760795 127.16590496 -30.85830688 129.95843506 C-31.4809961 131.8788895 -32.09260494 133.80292565 -32.70385742 135.72705078 C-33.08002197 136.87802246 -33.45618652 138.02899414 -33.84375 139.21484375 C-34.32618164 140.71712524 -34.32618164 140.71712524 -34.81835938 142.24975586 C-36.41713305 145.97086856 -38.5161173 148.92546425 -41.8125 151.3125 C-45.10980714 152.34879653 -47.55879764 152.41531753 -51 152 C-54.45075871 149.95627047 -56.77663596 147.33504606 -59 144 C-59.96083118 136.15629164 -57.072625 129.37117717 -54.5 122.0625 C-53.80343335 120.03899859 -53.11129652 118.01401362 -52.41918945 115.98898315 C-51.95170096 114.6223859 -51.48278447 113.25627631 -51.01245117 111.89065552 C-48.91341867 105.7900432 -46.94125096 99.65256576 -45 93.5 C-41.74462895 83.24084834 -38.35464833 73.0301493 -34.93505859 62.82470703 C-30.90035688 50.7656433 -26.9888595 38.66757762 -23.0927887 26.56312561 C-22.46055273 24.60196192 -21.82556439 22.64170882 -21.18994141 20.68164062 C-20.41269949 18.27687903 -19.64376787 15.8694112 -18.88427734 13.45898438 C-18.54090332 12.38712891 -18.1975293 11.31527344 -17.84375 10.2109375 C-17.54919922 9.27813965 -17.25464844 8.3453418 -16.95117188 7.38427734 C-13.97542832 -0.07494019 -7.41396078 -1.53806642 0 0 Z " fill="#6A6FB0" transform="translate(211,110)"/>
<path d="M0 0 C5.00015336 0.62610616 7.89260118 2.56516055 11.5625 5.9375 C13.96198948 10.02551912 14.33454905 13.19171004 13.25 17.8125 C11.37661249 21.19900819 8.80279118 23.92017501 6.25 26.8125 C4.14671542 29.3588459 2.07493938 31.93053442 0 34.5 C-1.12321403 35.885809 -2.24691531 37.27122322 -3.37109375 38.65625 C-3.93038574 39.34589844 -4.48967773 40.03554687 -5.06591797 40.74609375 C-6.7123254 42.76627243 -8.37299115 44.77403165 -10.03515625 46.78125 C-11.04481452 48.02039053 -12.0539538 49.25995417 -13.0625 50.5 C-13.53655273 51.06356201 -14.01060547 51.62712402 -14.49902344 52.20776367 C-16.38676326 54.5518607 -17.66628836 56.41622477 -18.29296875 59.3828125 C-17.54730217 62.71953633 -15.99446142 64.43327638 -13.75 67 C-12.92242187 67.96679688 -12.09484375 68.93359375 -11.2421875 69.9296875 C-10.41976562 70.88101563 -9.59734375 71.83234375 -8.75 72.8125 C-7.44915041 74.4092291 -6.15704546 76.01313372 -4.875 77.625 C-4.23433594 78.42808594 -3.59367187 79.23117188 -2.93359375 80.05859375 C-0.26099254 83.42922676 2.40306673 86.80647091 5.0625 90.1875 C5.76511963 91.08045776 5.76511963 91.08045776 6.48193359 91.99145508 C7.74152747 93.59567202 8.99596607 95.20393305 10.25 96.8125 C10.8378125 97.50988281 11.425625 98.20726562 12.03125 98.92578125 C14.01402554 101.9952703 13.96957153 104.68377018 13.84765625 108.26171875 C12.91298462 112.25087285 10.89688708 114.17153846 7.67578125 116.5859375 C3.50251122 118.69609336 -0.2281427 118.91156254 -4.75 117.8125 C-7.4375 115.8125 -7.4375 115.8125 -9.75 112.8125 C-10.84941265 111.57907934 -11.95402729 110.35028486 -13.0625 109.125 C-19.95660127 101.16342498 -26.35998917 92.78686923 -32.85546875 84.5 C-34.85206315 81.95353954 -36.85541029 79.41257779 -38.86328125 76.875 C-39.36754639 76.2365918 -39.87181152 75.59818359 -40.39135742 74.94042969 C-41.36279753 73.71082342 -42.33556679 72.48226578 -43.30981445 71.25488281 C-47.28768057 66.21336511 -48.36546023 63.2821081 -48.265625 56.859375 C-47.38936976 51.68150314 -44.4308677 48.33388554 -41.09375 44.40234375 C-39.62625813 42.6660961 -38.20227423 40.89945846 -36.78125 39.125 C-34.59987252 36.40777483 -32.4030391 33.70437618 -30.19140625 31.01171875 C-27.32598493 27.52256548 -24.48923096 24.01137384 -21.65991211 20.49291992 C-19.52393759 17.84800604 -17.36461195 15.22271072 -15.203125 12.59863281 C-13.85902418 10.94650889 -12.55185838 9.27137915 -11.25 7.5859375 C-5.28621962 0.23474988 -5.28621962 0.23474988 0 0 Z " fill="#6A6FB0" transform="translate(113.75,126.1875)"/>
<path d="M0 0 C10.02599327 2.60392405 16.50002106 13.80715077 22.40893555 21.61474609 C25.24577207 25.35528097 28.18404665 28.98363461 31.2109375 32.57421875 C34.83151267 36.87759653 38.34302793 41.24414139 41.7734375 45.69921875 C42.20333984 46.25609375 42.63324219 46.81296875 43.07617188 47.38671875 C46.8434509 52.31174694 47.8230508 55.31992959 47.7265625 61.52734375 C46.85111668 66.70043269 43.89737449 70.04737313 40.56347656 73.97558594 C39.07130169 75.73926122 37.62023856 77.53221987 36.171875 79.33203125 C33.9671068 82.06791634 31.74859601 84.79169275 29.51953125 87.5078125 C26.43829071 91.2749671 23.44360061 95.10392009 20.4609375 98.94921875 C6.33739866 117.07080551 6.33739866 117.07080551 0.90625 117.9453125 C-6.0919285 118.1261165 -6.0919285 118.1261165 -9.7890625 115.19921875 C-10.4490625 114.33296875 -11.1090625 113.46671875 -11.7890625 112.57421875 C-12.4490625 111.91421875 -13.1090625 111.25421875 -13.7890625 110.57421875 C-14.87163917 107.05766097 -14.66707032 104.12762211 -13.7890625 100.57421875 C-11.08867375 96.2095745 -7.8721316 92.4159341 -4.50537109 88.55273438 C-2.05719396 85.73053985 0.32134499 82.85284517 2.69873047 79.97094727 C3.87962443 78.54120289 5.0670502 77.11681792 6.26220703 75.69897461 C9.19902627 72.18371674 12.02148923 68.59779868 14.69140625 64.875 C15.19953857 64.17157471 15.7076709 63.46814941 16.23120117 62.7434082 C17.51044799 59.91108626 17.1594377 58.49431387 16.2109375 55.57421875 C14.69029789 53.354201 13.16763411 51.32723806 11.4609375 49.26171875 C10.97794189 48.66214355 10.49494629 48.06256836 9.99731445 47.44482422 C8.41107016 45.48027697 6.81176394 43.52689596 5.2109375 41.57421875 C3.50030448 39.47348456 1.79144324 37.37132048 0.08300781 35.26879883 C-1.00738829 33.92919191 -2.10032527 32.5916475 -3.19628906 31.2565918 C-4.73916788 29.3717422 -6.26752112 27.47632716 -7.7890625 25.57421875 C-8.34730713 24.88231445 -8.90555176 24.19041016 -9.48071289 23.47753906 C-10.02332764 22.78499023 -10.56594238 22.09244141 -11.125 21.37890625 C-11.61661621 20.75741699 -12.10823242 20.13592773 -12.61474609 19.49560547 C-14.35923696 16.64131376 -14.68231661 14.1295281 -14.4296875 10.828125 C-12.35767733 3.53818678 -7.49367551 -0.39226821 0 0 Z " fill="#6A6FB0" transform="translate(256.7890625,126.42578125)"/>
<path d="M0 0 C3.12001504 1.68818449 5.39047471 3.78094941 7 7 C7.42054103 11.56933999 7.56125534 15.68104995 5.75 19.9375 C3.34655121 22.77013607 1.35235905 24.73220613 -2.3671875 25.46875 C-6.68942001 25.5226096 -9.99467381 25.54941724 -13.5 22.8125 C-16.72141451 19.18840867 -17.76728324 16.82294798 -18.375 12.0625 C-17.80710637 7.42470201 -15.60846098 4.44077037 -12.1640625 1.35546875 C-8.34328798 -1.03768785 -4.34459741 -0.75260743 0 0 Z " fill="#35C3EF" transform="translate(103,34)"/>
<path d="M0 0 C3.20418952 1.6379869 5.24908562 3.97602584 7.375 6.875 C8.75785693 11.57671357 8.57576982 14.93071319 6.25 19.25 C3.653856 22.42306489 1.72843742 24.68803812 -2.40234375 25.43359375 C-6.63524639 25.44011594 -9.27798326 25.42117643 -13 23.25 C-16.70767415 19.07886658 -17.44145407 15.72789368 -17.32421875 10.25390625 C-16.82304045 6.76981134 -15.25055134 4.63636014 -13 2 C-8.75091594 -0.83272271 -4.98854595 -0.76806539 0 0 Z " fill="#FBB15C" transform="translate(148,34)"/>
<path d="M0 0 C4.10746873 1.77367968 6.69875485 4.16459142 9 8 C9.73654211 12.034614 9.42172687 15.09629956 7.6875 18.8125 C5.21886433 22.01258327 3.89329386 23.70223538 0 25 C-7.63119919 25.75060976 -7.63119919 25.75060976 -11.375 22.6875 C-14.56513218 19.4214123 -16.30895667 17.30319932 -16.5 12.75 C-16.42226765 7.99278042 -14.72888668 5.67362088 -11.5078125 2.3125 C-8.08434754 -0.66751095 -4.32516194 -0.45835049 0 0 Z " fill="#FD7C8E" transform="translate(56,34)"/>
</svg>
